<mxfile host="app.diagrams.net" modified="2021-04-07T07:33:47.373Z" agent="5.0 (Windows NT 10.0; WOW64) AppleWebKit/537.36 (KHTML, like Gecko) Chrome/78.0.3904.108 Safari/537.36" etag="ev1lktRFAZdaY5DbzG-Z" version="14.5.8" type="github">
  <diagram id="-tPKUvdFry7qOBt_xG3p" name="第 1 页">
    <mxGraphModel dx="2489" dy="763" grid="1" gridSize="10" guides="1" tooltips="1" connect="1" arrows="1" fold="1" page="1" pageScale="1" pageWidth="827" pageHeight="1169" math="0" shadow="0">
      <root>
        <mxCell id="0" />
        <mxCell id="1" parent="0" />
        <mxCell id="2iYeHYmOoIRAlwhhW6ec-1" value="" style="rounded=0;whiteSpace=wrap;html=1;fillColor=#D5E8D4;" vertex="1" parent="1">
          <mxGeometry x="40" y="40" width="560" height="380" as="geometry" />
        </mxCell>
        <mxCell id="2iYeHYmOoIRAlwhhW6ec-2" value="&lt;font style=&quot;font-size: 18px&quot;&gt;JVM运行时内存划分&lt;/font&gt;" style="text;html=1;strokeColor=none;fillColor=none;align=center;verticalAlign=middle;whiteSpace=wrap;rounded=0;" vertex="1" parent="1">
          <mxGeometry x="190" width="350" height="40" as="geometry" />
        </mxCell>
        <mxCell id="2iYeHYmOoIRAlwhhW6ec-3" value="" style="rounded=0;whiteSpace=wrap;html=1;fillColor=#FFE6CC;" vertex="1" parent="1">
          <mxGeometry x="70" y="60" width="270" height="320" as="geometry" />
        </mxCell>
        <mxCell id="2iYeHYmOoIRAlwhhW6ec-4" value="编译器" style="rounded=0;whiteSpace=wrap;html=1;fillColor=#D5E8D4;" vertex="1" parent="1">
          <mxGeometry x="620" y="45" width="130" height="55" as="geometry" />
        </mxCell>
        <mxCell id="2iYeHYmOoIRAlwhhW6ec-5" value="执行引擎" style="rounded=0;whiteSpace=wrap;html=1;fillColor=#D5E8D4;" vertex="1" parent="1">
          <mxGeometry x="630" y="310" width="130" height="80" as="geometry" />
        </mxCell>
        <mxCell id="2iYeHYmOoIRAlwhhW6ec-33" style="edgeStyle=orthogonalEdgeStyle;rounded=0;orthogonalLoop=1;jettySize=auto;html=1;entryX=0.558;entryY=0.025;entryDx=0;entryDy=0;entryPerimeter=0;" edge="1" parent="1" source="2iYeHYmOoIRAlwhhW6ec-7" target="2iYeHYmOoIRAlwhhW6ec-8">
          <mxGeometry relative="1" as="geometry">
            <Array as="points">
              <mxPoint x="450" y="140" />
              <mxPoint x="450" y="197" />
            </Array>
          </mxGeometry>
        </mxCell>
        <mxCell id="2iYeHYmOoIRAlwhhW6ec-34" value="地址指向" style="edgeLabel;html=1;align=center;verticalAlign=middle;resizable=0;points=[];" vertex="1" connectable="0" parent="2iYeHYmOoIRAlwhhW6ec-33">
          <mxGeometry x="-0.0875" y="1" relative="1" as="geometry">
            <mxPoint x="19" y="4" as="offset" />
          </mxGeometry>
        </mxCell>
        <mxCell id="2iYeHYmOoIRAlwhhW6ec-7" value="方法区：&lt;br&gt;类信息，类、方法名，常量池，静态变量" style="rounded=0;whiteSpace=wrap;html=1;fillColor=#A3E7FF;" vertex="1" parent="1">
          <mxGeometry x="474" y="60" width="110" height="100" as="geometry" />
        </mxCell>
        <mxCell id="2iYeHYmOoIRAlwhhW6ec-8" value="heap堆：对象" style="ellipse;whiteSpace=wrap;html=1;fillColor=#A3E7FF;" vertex="1" parent="1">
          <mxGeometry x="340" y="210" width="120" height="80" as="geometry" />
        </mxCell>
        <mxCell id="2iYeHYmOoIRAlwhhW6ec-54" value="本地方法栈：&lt;br&gt;native方法，会从这里开辟空间" style="rounded=0;whiteSpace=wrap;html=1;fillColor=#A3E7FF;" vertex="1" parent="1">
          <mxGeometry x="470" y="290" width="120" height="100" as="geometry" />
        </mxCell>
        <mxCell id="2iYeHYmOoIRAlwhhW6ec-55" value="" style="rounded=0;whiteSpace=wrap;html=1;fillColor=#A3E7FF;" vertex="1" parent="1">
          <mxGeometry x="80" y="110" width="180" height="260" as="geometry" />
        </mxCell>
        <mxCell id="2iYeHYmOoIRAlwhhW6ec-57" value="&lt;font style=&quot;font-size: 18px&quot;&gt;栈stack&lt;/font&gt;" style="text;html=1;strokeColor=none;fillColor=none;align=center;verticalAlign=middle;whiteSpace=wrap;rounded=0;" vertex="1" parent="1">
          <mxGeometry x="65" y="50" width="275" height="40" as="geometry" />
        </mxCell>
        <mxCell id="2iYeHYmOoIRAlwhhW6ec-58" value="栈帧1（main方法）" style="rounded=0;whiteSpace=wrap;html=1;fillColor=#85E6BF;" vertex="1" parent="1">
          <mxGeometry x="92.5" y="320" width="145" height="40" as="geometry" />
        </mxCell>
        <mxCell id="2iYeHYmOoIRAlwhhW6ec-59" value="" style="rounded=0;whiteSpace=wrap;html=1;fillColor=#85E6BF;" vertex="1" parent="1">
          <mxGeometry x="90" y="130" width="150" height="180" as="geometry" />
        </mxCell>
        <mxCell id="2iYeHYmOoIRAlwhhW6ec-61" value="" style="edgeStyle=none;orthogonalLoop=1;jettySize=auto;html=1;" edge="1" parent="1" source="2iYeHYmOoIRAlwhhW6ec-60" target="2iYeHYmOoIRAlwhhW6ec-59">
          <mxGeometry relative="1" as="geometry" />
        </mxCell>
        <mxCell id="2iYeHYmOoIRAlwhhW6ec-60" value="&lt;span style=&quot;color: rgb(0 , 0 , 0) ; font-family: &amp;#34;helvetica&amp;#34; ; font-size: 12px ; font-style: normal ; font-weight: 400 ; letter-spacing: normal ; text-align: center ; text-indent: 0px ; text-transform: none ; word-spacing: 0px ; background-color: rgb(248 , 249 , 250) ; display: inline ; float: none&quot;&gt;栈帧2：test方法&lt;/span&gt;" style="text;whiteSpace=wrap;html=1;" vertex="1" parent="1">
          <mxGeometry x="100" y="108" width="120" height="20" as="geometry" />
        </mxCell>
        <mxCell id="2iYeHYmOoIRAlwhhW6ec-62" value="局部变量表" style="rounded=0;whiteSpace=wrap;html=1;fillColor=#CCE5FF;" vertex="1" parent="1">
          <mxGeometry x="102" y="135" width="130" height="35" as="geometry" />
        </mxCell>
        <mxCell id="2iYeHYmOoIRAlwhhW6ec-63" value="操作数栈" style="rounded=0;whiteSpace=wrap;html=1;fillColor=#CCE5FF;" vertex="1" parent="1">
          <mxGeometry x="102" y="176" width="130" height="35" as="geometry" />
        </mxCell>
        <mxCell id="2iYeHYmOoIRAlwhhW6ec-64" value="动态链接" style="rounded=0;whiteSpace=wrap;html=1;fillColor=#CCE5FF;" vertex="1" parent="1">
          <mxGeometry x="102" y="217.5" width="130" height="35" as="geometry" />
        </mxCell>
        <mxCell id="2iYeHYmOoIRAlwhhW6ec-65" value="方法出口" style="rounded=0;whiteSpace=wrap;html=1;fillColor=#CCE5FF;" vertex="1" parent="1">
          <mxGeometry x="101" y="260.5" width="130" height="35" as="geometry" />
        </mxCell>
        <mxCell id="2iYeHYmOoIRAlwhhW6ec-67" value="&lt;span style=&quot;color: rgb(0 , 0 , 0) ; font-family: &amp;#34;helvetica&amp;#34; ; font-size: 12px ; font-style: normal ; font-weight: 400 ; letter-spacing: normal ; text-align: center ; text-indent: 0px ; text-transform: none ; word-spacing: 0px ; background-color: rgb(248 , 249 , 250) ; display: inline ; float: none&quot;&gt;程序计数器&lt;/span&gt;" style="text;whiteSpace=wrap;html=1;" vertex="1" parent="1">
          <mxGeometry x="243" y="110" width="20" height="112" as="geometry" />
        </mxCell>
        <mxCell id="2iYeHYmOoIRAlwhhW6ec-68" style="edgeStyle=none;orthogonalLoop=1;jettySize=auto;html=1;exitX=1;exitY=0.25;exitDx=0;exitDy=0;" edge="1" parent="1" source="2iYeHYmOoIRAlwhhW6ec-67" target="2iYeHYmOoIRAlwhhW6ec-67">
          <mxGeometry relative="1" as="geometry" />
        </mxCell>
        <mxCell id="2iYeHYmOoIRAlwhhW6ec-69" value="" style="rounded=0;whiteSpace=wrap;html=1;fillColor=#A3E7FF;" vertex="1" parent="1">
          <mxGeometry x="270" y="110" width="20" height="260" as="geometry" />
        </mxCell>
        <mxCell id="2iYeHYmOoIRAlwhhW6ec-70" value="" style="rounded=0;whiteSpace=wrap;html=1;fillColor=#A3E7FF;" vertex="1" parent="1">
          <mxGeometry x="300" y="110" width="20" height="260" as="geometry" />
        </mxCell>
        <mxCell id="2iYeHYmOoIRAlwhhW6ec-72" value="&lt;font style=&quot;font-size: 18px&quot;&gt;thread1&lt;/font&gt;" style="text;html=1;strokeColor=none;fillColor=none;align=center;verticalAlign=middle;whiteSpace=wrap;rounded=0;" vertex="1" parent="1">
          <mxGeometry x="29.5" y="75" width="275" height="40" as="geometry" />
        </mxCell>
        <mxCell id="2iYeHYmOoIRAlwhhW6ec-73" value="&lt;font style=&quot;font-size: 18px&quot;&gt;thread2 ...&lt;/font&gt;" style="text;html=1;strokeColor=none;fillColor=none;align=center;verticalAlign=middle;whiteSpace=wrap;rounded=0;" vertex="1" parent="1">
          <mxGeometry x="160" y="75" width="275" height="40" as="geometry" />
        </mxCell>
        <mxCell id="2iYeHYmOoIRAlwhhW6ec-74" value="&lt;span style=&quot;color: rgb(0 , 0 , 0) ; font-family: &amp;#34;helvetica&amp;#34; ; font-size: 12px ; font-style: normal ; font-weight: 400 ; letter-spacing: normal ; text-align: center ; text-indent: 0px ; text-transform: none ; word-spacing: 0px ; background-color: rgb(248 , 249 , 250) ; display: inline ; float: none&quot;&gt;程序计数器&lt;/span&gt;" style="text;whiteSpace=wrap;html=1;" vertex="1" parent="1">
          <mxGeometry x="270" y="110" width="20" height="112" as="geometry" />
        </mxCell>
        <mxCell id="2iYeHYmOoIRAlwhhW6ec-75" value="&lt;span style=&quot;color: rgb(0 , 0 , 0) ; font-family: &amp;#34;helvetica&amp;#34; ; font-size: 12px ; font-style: normal ; font-weight: 400 ; letter-spacing: normal ; text-align: center ; text-indent: 0px ; text-transform: none ; word-spacing: 0px ; background-color: rgb(248 , 249 , 250) ; display: inline ; float: none&quot;&gt;程序计数器&lt;/span&gt;" style="text;whiteSpace=wrap;html=1;" vertex="1" parent="1">
          <mxGeometry x="304.5" y="110" width="20" height="112" as="geometry" />
        </mxCell>
        <mxCell id="2iYeHYmOoIRAlwhhW6ec-77" value="局部变量表" style="rounded=0;whiteSpace=wrap;html=1;fillColor=#CCE5FF;" vertex="1" parent="1">
          <mxGeometry x="-120" y="95" width="130" height="35" as="geometry" />
        </mxCell>
      </root>
    </mxGraphModel>
  </diagram>
</mxfile>
